# Blender v2.78 (sub 0) OBJ File: ''
# www.blender.org
o DrawCall_35_mater.041
v -0.110614 3.742210 -0.636820
v 0.039557 3.788134 -0.653399
v 0.030319 3.659495 -0.725789
v -0.225814 3.653650 -0.561940
v -0.119047 3.622289 -0.692119
v -0.272837 3.474378 -0.470974
v -0.238693 3.457397 -0.587081
v 0.009037 3.308942 -0.648903
v -0.247866 3.260001 -0.344823
v -0.183050 3.146423 -0.463450
v 0.020905 3.382972 -0.144260
v 0.005668 3.126186 -0.063353
v 0.130234 3.365758 -0.156820
v 0.165757 3.050772 -0.134472
v 0.183064 3.719566 -0.624753
v -0.001902 3.106116 -0.507176
v -0.011238 2.920722 -0.331262
v -0.085601 2.895294 -0.260397
v 0.252821 3.284459 -0.246541
v 0.198157 2.993983 -0.193782
v 0.184046 3.118111 -0.448359
v 0.079599 2.882552 -0.253610
v 0.193646 2.689389 -0.280385
v 0.188299 2.736262 -0.230532
v 0.148381 2.610637 -0.224646
v 0.269152 2.020208 -0.210160
v 0.319497 2.052444 -0.156358
v 0.366095 2.030378 -0.205387
v 0.331348 2.022787 -0.242250
v 0.443809 1.490707 0.134673
v 0.409251 1.442239 0.094434
v 0.487134 1.442161 0.098739
v 0.451728 1.422190 0.065680
v 0.451138 1.407381 0.194586
v 0.455101 1.362513 0.157451
v 0.465882 1.303449 0.233005
v 0.513520 1.362054 0.160631
v 0.456275 1.317825 0.145124
v -0.328994 2.038638 -0.231725
v -0.201331 2.737504 -0.250233
v -0.336110 2.009956 -0.292372
v -0.143843 2.611568 -0.239425
v -0.195984 2.690630 -0.300092
v -0.283034 2.004743 -0.307794
v -0.250506 2.009947 -0.252984
v -0.164633 3.076250 -0.148052
v -0.018641 2.728750 0.011521
v -0.205649 3.025124 -0.210382
v -0.224404 3.321257 -0.266158
v 0.266073 3.220369 -0.323701
v -0.090020 3.382745 -0.165875
v -0.022203 2.175121 -0.276773
v 0.036218 2.175267 -0.273624
v -0.086990 1.892102 -0.212973
v 0.100089 1.915822 -0.134981
v 0.106456 2.198694 -0.201935
v 0.040374 2.221778 -0.137592
v -0.026790 1.924362 -0.052131
v -0.076473 2.221485 -0.143890
v -0.119877 1.932706 -0.095909
v -0.107759 2.198156 -0.213480
v -0.114131 1.915285 -0.146527
v 0.068804 1.892493 -0.204576
v 0.034155 1.729124 -0.064416
v -0.018365 1.726514 -0.120152
v -0.043745 1.728929 -0.068614
v -0.047468 1.722310 -0.209888
v 0.069384 1.722603 -0.203590
v 0.226563 0.128538 0.036379
v 0.267466 0.129795 0.020945
v 0.267637 0.004042 0.056617
v 0.261537 0.130269 0.073561
v 0.284952 0.130667 0.039546
v -0.239559 1.363252 0.106154
v -0.291355 1.385784 0.132071
v -0.227774 1.294313 0.170937
v -0.284849 1.329647 0.089518
v -0.227831 1.315769 0.092583
v -0.230440 1.433946 0.039732
v -0.288537 1.442312 0.045305
v -0.275517 1.400007 0.023087
v -0.237819 1.396403 0.001965
v 0.016476 2.708485 -0.021151
v -0.022774 2.662788 0.017048
v -0.022143 2.683513 -0.032211
v -0.017249 2.792576 -0.177970
v 0.121823 2.680189 -0.159587
v 0.099021 2.493276 -0.131299
v 0.118860 2.602497 -0.314076
v -0.095433 2.603177 -0.324920
v -0.115278 2.493957 -0.142137
v -0.131438 2.680995 -0.172402
v 0.117967 1.726856 -0.112804
v 0.135129 1.000978 -0.016697
v 0.089962 1.014206 0.032392
v 0.185191 1.022624 0.054737
v 0.122648 1.030257 0.085699
v -0.056947 2.714147 -0.024171
v -0.009814 2.803067 -0.209328
v -0.044844 2.820843 -0.247593
v 0.052562 2.820532 -0.242666
v -0.000372 2.794802 -0.296788
v -0.232115 0.100719 -0.282143
v -0.267440 0.107947 -0.318590
v -0.244340 -0.019305 -0.321331
v -0.189564 0.110048 -0.314443
v -0.226694 0.113135 -0.333704
v -0.136006 0.979008 -0.102276
v -0.188643 0.980251 -0.157941
v -0.091294 0.982874 -0.152761
v -0.124457 0.984643 -0.207393
v -0.154690 1.726172 -0.127499
v 0.174626 3.599644 -0.680049
v 0.288121 3.614019 -0.540814
v 0.275242 3.417765 -0.565955
v 0.314518 3.429084 -0.446832
v 0.186430 3.742431 -0.490044
v 0.044033 3.830088 -0.526232
v 0.041357 3.759186 -0.395549
v 0.287042 3.560558 -0.375955
v 0.181223 3.623009 -0.319662
v 0.033444 3.603239 -0.251809
v -0.107247 3.765081 -0.502119
v -0.112458 3.645653 -0.331733
v -0.226893 3.600189 -0.397073
vt 1.0212 0.0353
vt 0.9999 0.0295
vt 0.9999 0.0353
vt 1.0367 0.0519
vt 1.0218 0.0435
vt 1.0426 0.0768
vt 1.0365 0.0685
vt 1.0204 0.0685
vt 1.0386 0.1062
vt 1.0356 0.1062
vt 1.0000 0.4688
vt 1.0000 0.7500
vt 0.8125 0.4688
vt 0.7500 0.7500
vt 0.9784 0.0353
vt 1.0146 0.1062
vt 0.9999 0.1355
vt 1.0118 0.1439
vt 0.5625 0.4688
vt 0.6250 0.6875
vt 0.9990 0.0523
vt 1.0264 0.1064
vt 0.9724 0.1062
vt 0.9878 0.1439
vt 0.9844 0.1064
vt 0.9639 0.1064
vt 0.9707 0.1357
vt 0.9785 0.1440
vt 0.9984 0.0182
vt 0.9984 0.0178
vt 0.9984 0.0196
vt 0.9889 0.0252
vt 0.9873 0.0249
vt 0.9858 0.0249
vt 0.9873 0.0251
vt 0.9734 0.0322
vt 0.9745 0.0322
vt 0.9723 0.0323
vt 0.9734 0.0323
vt 0.9724 0.0336
vt 0.9731 0.0337
vt 0.9714 0.0352
vt 0.9702 0.0338
vt 0.9724 0.0339
vt 1.0365 0.0251
vt 1.0247 0.0176
vt 1.0380 0.0251
vt 1.0247 0.0198
vt 1.0250 0.0182
vt 1.0365 0.0254
vt 1.0349 0.0254
vt 0.7500 0.6223
vt 0.9968 0.9597
vt 1.0000 0.6223
vt 0.4375 0.4688
vt 0.6250 0.6875
vt 0.5625 0.4688
vt 0.9611 0.1062
vt 0.9716 0.1355
vt 0.9640 0.1062
vt 0.7500 0.7500
vt 0.8125 0.4688
vt 1.0138 0.0254
vt 1.0117 0.0256
vt 1.0134 0.0283
vt 1.0024 0.0283
vt 1.0024 0.0246
vt 1.0067 0.0245
vt 1.0114 0.0285
vt 1.0167 0.0245
vt 1.0201 0.0283
vt 1.0214 0.0247
vt 1.0209 0.0283
vt 1.0088 0.0254
vt 1.0098 0.0283
vt 1.0049 0.0283
vt 1.0117 0.0249
vt 1.0176 0.0283
vt 1.0074 0.0308
vt 1.0115 0.0309
vt 1.0138 0.0308
vt 1.0164 0.0308
vt 1.0127 0.0283
vt 1.0061 0.0308
vt 0.9923 0.0523
vt 0.9907 0.0523
vt 0.9900 0.0536
vt 0.9907 0.0523
vt 0.9890 0.0523
vt 1.0496 0.0338
vt 1.0503 0.0336
vt 1.0499 0.0352
vt 1.0525 0.0339
vt 1.0503 0.0339
vt 1.0494 0.0323
vt 1.0507 0.0323
vt 1.0518 0.0324
vt 1.0507 0.0325
vt 1.0281 0.1355
vt 0.9933 0.1795
vt 0.9999 0.1873
vt 0.9990 0.1807
vt 0.9834 0.1604
vt 0.9912 0.1690
vt 0.9999 0.1604
vt 0.7500 0.6226
vt 1.0117 0.1440
vt 1.0078 0.1690
vt 1.0205 0.1440
vt 1.0156 0.1606
vt 0.1444 0.8508
vt 0.5254 0.8540
vt 0.3359 0.9468
vt 0.3311 0.7715
vt 0.8750 0.9062
vt 0.7500 0.8438
vt 1.0007 0.0184
vt 1.0024 0.0209
vt 1.0023 0.0191
vt 1.0117 0.0179
vt 1.0205 0.0195
vt 1.0211 0.0209
vt 1.0117 0.0210
vt 1.0227 0.0185
vt 1.0094 0.0254
vt 1.0020 0.0210
vt 1.0117 0.0195
vt 1.0117 0.0259
vt 1.0052 0.0283
vt 1.0011 0.0308
vt 0.9991 0.0406
vt 1.0021 0.0406
vt 0.9957 0.0406
vt 0.9991 0.0406
vt 1.0211 0.1439
vt 0.8718 0.9597
vt 0.7500 0.6226
vt 1.0117 0.0169
vt 1.0117 0.0145
vt 1.0164 0.0166
vt 1.0074 0.0166
vt 1.0082 0.0145
vt 1.0117 0.0169
vt 1.0117 0.0145
vt 1.0117 0.0184
vt 1.0146 0.0147
vt 1.0000 0.0185
vt 1.0117 0.0207
vt 1.0117 0.0185
vt 1.0365 0.0523
vt 1.0382 0.0523
vt 1.0381 0.0536
vt 1.0349 0.0523
vt 1.0364 0.0523
vt 1.0240 0.0406
vt 1.0276 0.0406
vt 1.0211 0.0406
vt 1.0240 0.0406
vt 1.0225 0.0308
vt 1.0179 0.0283
vt 0.9778 0.0435
vt 0.9629 0.0519
vt 0.9850 0.1062
vt 0.9793 0.0685
vt 0.9631 0.0685
vt 0.9570 0.0768
vt 0.7500 0.0938
vt 1.0000 0.0312
vt 1.0000 0.1562
vt 0.5625 0.2500
vt 0.7500 0.2500
vt 1.0000 0.2812
vt 1.0000 0.0000
vt 0.7500 0.0312
vt 0.7500 0.0938
vt 0.5625 0.1562
vt 0.7500 0.2500
vt 0.5625 0.2500
vt 0.3750 0.2812
vt 0.7500 0.0312
vt 0.5625 0.1562
vt 0.3750 0.2812
vt 0.4375 0.4688
vt 0.8750 0.9375
vt 1.0000 1.0000
vt 1.0000 0.9375
vt 0.8750 0.9375
vt 1.0146 0.1064
vt 1.0272 0.1062
vt 0.7500 0.8438
vt 0.8750 0.9062
vt 0.9999 0.1804
vt 0.9990 0.1875
vt 1.0059 0.1797
vt 0.9961 0.9600
vt 0.8711 0.9600
vn -0.5089 0.6789 -0.5291
vn 0.0760 0.7832 -0.6170
vn 0.0463 0.1812 -0.9823
vn -0.8603 0.4466 -0.2456
vn -0.4642 0.0931 -0.8808
vn -0.9995 0.0276 -0.0162
vn -0.7727 -0.1710 -0.6113
vn -0.0035 -0.4180 -0.9084
vn -0.9906 -0.1355 0.0171
vn -0.6719 -0.4866 -0.5583
vn -0.0078 0.3718 0.9283
vn -0.0150 0.1900 0.9817
vn 0.4362 0.2951 0.8501
vn 0.6824 0.0100 0.7309
vn 0.6237 0.5855 -0.5178
vn -0.0230 -0.6363 -0.7711
vn -0.0788 -0.4948 -0.8654
vn -0.7950 -0.4616 -0.3934
vn 0.8473 0.0605 0.5276
vn 0.9098 -0.3932 0.1324
vn 0.6193 -0.5490 -0.5613
vn 0.7960 -0.4893 -0.3562
vn 0.8588 0.1040 -0.5016
vn 0.8462 0.4661 0.2579
vn 0.8454 -0.3418 0.4105
vn -0.9325 -0.2700 -0.2398
vn 0.0303 0.2448 0.9691
vn 0.9753 0.1600 -0.1518
vn 0.1805 -0.2231 -0.9579
vn -0.0108 0.5409 0.8410
vn -0.9483 -0.3109 -0.0636
vn 0.9732 0.0805 -0.2152
vn 0.0613 -0.5901 -0.8050
vn -0.3087 0.3182 0.8963
vn -0.9832 -0.1720 0.0606
vn -0.0841 -0.6321 0.7703
vn 0.9912 -0.1317 -0.0103
vn -0.3733 -0.7997 -0.4701
vn -0.6491 0.1825 0.7385
vn -0.8941 0.4092 0.1819
vn -0.8090 -0.1083 -0.5777
vn -0.9033 -0.3874 0.1844
vn -0.7895 0.0476 -0.6118
vn 0.3037 -0.2316 -0.9242
vn 0.9710 0.0129 0.2387
vn -0.6957 0.0946 0.7121
vn -0.0113 0.0673 0.9977
vn -0.9461 -0.3011 0.1191
vn -0.8357 0.1629 0.5245
vn 0.9661 -0.2582 -0.0034
vn -0.4353 0.3404 0.8334
vn -0.2541 -0.1527 -0.9550
vn 0.3855 -0.1651 -0.9078
vn -0.4765 -0.1557 -0.8652
vn 0.9511 0.0568 0.3034
vn 0.9955 -0.0952 0.0015
vn 0.3478 0.0564 0.9358
vn 0.0385 0.0879 0.9954
vn -0.5625 0.0859 0.8223
vn -0.8383 0.1027 0.5354
vn -0.9605 -0.0516 -0.2735
vn -0.9611 0.0703 -0.2669
vn 0.5206 -0.1899 -0.8324
vn -0.1129 0.0623 0.9916
vn 0.6860 -0.7213 -0.0948
vn 0.3087 -0.1108 0.9446
vn 0.3672 0.0242 -0.9298
vn 0.1307 -0.1155 -0.9846
vn -0.9393 -0.2406 -0.2445
vn 0.2404 -0.1205 -0.9631
vn 0.0717 -0.9926 0.0972
vn 0.0990 -0.0740 0.9923
vn 0.9951 -0.0197 -0.0967
vn 0.8330 0.4100 0.3713
vn -0.5383 0.4126 0.7349
vn 0.3378 -0.5677 0.7507
vn -0.7211 -0.6423 -0.2598
vn 0.6673 -0.6366 -0.3865
vn 0.8669 0.3220 0.3805
vn -0.8073 0.4141 0.4203
vn -0.7157 -0.4343 -0.5470
vn 0.4504 -0.5493 -0.7038
vn 0.8502 -0.4986 0.1688
vn -0.0506 -0.7982 0.6003
vn -0.0556 -0.8789 -0.4736
vn -0.1129 -0.8886 -0.4446
vn 0.4448 0.2030 0.8723
vn 0.5070 0.0021 0.8619
vn 0.4990 -0.0445 -0.8654
vn -0.3637 -0.1099 -0.9250
vn -0.6327 0.0042 0.7744
vn -0.5276 0.1719 0.8319
vn 0.9623 0.1245 0.2417
vn 0.0445 -0.1404 -0.9891
vn -0.9869 -0.1595 -0.0230
vn 0.9503 0.1228 0.2860
vn -0.2576 0.0744 0.9634
vn -0.9066 -0.3910 0.1582
vn -0.0861 -0.7216 0.6869
vn -0.9901 0.0567 -0.1287
vn 0.9713 0.1837 0.1508
vn 0.0433 0.1478 -0.9881
vn -0.0699 -0.2444 0.9671
vn -0.9687 -0.0197 -0.2472
vn -0.1100 -0.9901 -0.0866
vn 0.9618 -0.2326 -0.1445
vn 0.0518 0.0327 -0.9981
vn 0.0128 -0.1150 0.9933
vn -0.9960 0.0836 -0.0322
vn 0.9854 -0.1285 0.1111
vn 0.1882 0.0563 -0.9805
vn -0.9939 -0.0169 0.1087
vn 0.5143 0.0245 -0.8572
vn 0.9123 0.3269 -0.2467
vn 0.7556 -0.2595 -0.6013
vn 0.9946 -0.0974 -0.0345
vn 0.6192 0.7624 0.1882
vn 0.0722 0.9948 0.0712
vn 0.0419 0.8059 0.5906
vn 0.8357 0.3438 0.4282
vn 0.4826 0.5539 0.6784
vn 0.0123 0.5607 0.8279
vn -0.5135 0.8357 0.1946
vn -0.4358 0.5976 0.6729
vn -0.7883 0.4402 0.4299
s 1
f 1/1/1 2/2/2 3/3/3
f 4/4/4 1/1/1 5/5/5
f 5/5/5 1/1/1 3/3/3
f 6/6/6 4/4/4 7/7/7
f 7/7/7 4/4/4 5/5/5
f 7/7/7 5/5/5 8/8/8
f 9/9/9 6/6/6 10/10/10
f 10/10/10 6/6/6 7/7/7
f 11/11/11 12/12/12 13/13/13
f 13/13/13 12/12/12 14/14/14
f 3/3/3 2/2/2 15/15/15
f 16/16/16 17/17/17 18/18/18
f 19/19/19 14/14/14 20/20/20
f 8/8/8 5/5/5 3/21/3
f 10/22/10 7/7/7 8/8/8
f 10/22/10 8/8/8 16/16/16
f 21/23/21 22/24/22 16/25/16
f 21/26/21 20/27/20 22/28/22
f 23/29/23 24/30/24 25/31/25
f 26/32/26 27/33/27 25/31/25
f 23/29/23 24/30/24 28/34/28
f 29/35/29 26/32/26 23/29/23
f 28/34/28 29/35/29 23/29/23
f 23/29/23 26/32/26 25/31/25
f 27/33/27 28/34/28 24/30/24
f 25/31/25 27/33/27 24/30/24
f 27/33/27 26/32/26 30/36/30
f 31/37/31 30/36/30 26/32/26
f 28/34/28 27/33/27 32/38/32
f 30/36/30 32/38/32 27/33/27
f 29/35/29 28/34/28 33/39/33
f 32/38/32 33/39/33 28/34/28
f 26/32/26 29/35/29 31/37/31
f 33/39/33 31/37/31 29/35/29
f 30/36/30 31/37/31 34/40/34
f 35/41/35 34/40/34 31/37/31
f 34/40/34 35/41/35 36/42/36
f 32/38/32 30/36/30 37/43/37
f 34/40/34 37/43/37 30/36/30
f 37/43/37 34/40/34 36/42/36
f 33/39/33 32/38/32 38/44/38
f 37/43/37 38/44/38 32/38/32
f 38/44/38 37/43/37 36/42/36
f 31/37/31 33/39/33 35/41/35
f 38/44/38 35/41/35 33/39/33
f 35/41/35 38/44/38 36/42/36
f 39/45/39 40/46/40 41/47/41
f 42/48/42 40/46/40 39/45/39
f 41/47/41 43/49/43 44/50/44
f 45/51/45 43/49/43 42/48/42
f 46/52/46 47/53/47 12/54/12
f 9/55/9 48/56/48 49/57/49
f 50/58/50 20/59/20 21/60/21
f 49/57/49 48/56/48 46/61/46
f 49/57/49 46/61/46 51/62/51
f 51/62/51 12/12/12 11/11/11
f 52/63/52 53/64/53 54/65/54
f 55/66/55 56/67/56 57/68/57
f 55/66/55 57/68/57 58/69/58
f 59/70/59 60/71/60 58/69/58
f 59/70/59 61/72/61 60/71/60
f 60/71/60 61/72/61 62/73/62
f 54/65/54 53/74/53 63/75/63
f 53/74/53 56/67/56 63/76/63
f 55/66/55 63/76/63 56/67/56
f 59/77/59 58/69/58 57/68/57
f 62/73/62 61/72/61 54/78/54
f 61/72/61 52/63/52 54/78/54
f 64/79/64 58/69/58 65/80/65
f 65/80/65 58/69/58 66/81/66
f 67/82/67 54/83/54 65/80/65
f 65/80/65 63/75/63 68/84/68
f 54/83/54 63/75/63 65/80/65
f 69/85/69 70/86/70 71/87/71
f 72/88/72 69/85/69 71/87/71
f 73/89/73 72/88/72 71/87/71
f 74/90/74 75/91/75 76/92/76
f 75/91/75 77/93/77 76/92/76
f 77/93/77 78/94/78 76/92/76
f 78/94/78 74/90/74 76/92/76
f 79/95/79 80/96/80 75/91/75
f 75/91/75 74/90/74 79/95/79
f 80/96/80 81/97/81 77/93/77
f 77/93/77 75/91/75 80/96/80
f 81/97/81 82/98/82 78/94/78
f 78/94/78 77/93/77 81/97/81
f 82/98/82 79/95/79 74/90/74
f 74/90/74 78/94/78 82/98/82
f 45/51/45 39/45/39 80/96/80
f 80/96/80 79/95/79 45/51/45
f 39/45/39 41/47/41 81/97/81
f 81/97/81 80/96/80 39/45/39
f 41/47/41 44/50/44 82/98/82
f 82/98/82 81/97/81 41/47/41
f 44/50/44 45/51/45 79/95/79
f 79/95/79 82/98/82 44/50/44
f 40/46/40 43/49/43 42/48/42
f 39/45/39 45/51/45 42/48/42
f 43/49/43 41/47/41 40/46/40
f 45/51/45 44/50/44 43/49/43
f 10/10/10 48/99/48 9/9/9
f 83/100/83 84/101/84 85/102/85
f 20/103/20 83/100/83 85/104/85
f 22/24/22 85/104/85 86/105/86
f 12/54/12 47/53/47 14/106/14
f 22/28/22 20/103/20 85/104/85
f 18/107/18 86/105/86 85/108/85
f 18/109/18 85/108/85 48/110/48
f 17/111/17 86/112/86 22/113/22
f 17/111/17 18/114/18 86/112/86
f 83/115/83 20/116/20 14/14/14
f 25/31/25 24/30/24 87/117/87
f 25/31/25 87/117/87 88/118/88
f 89/119/89 23/29/23 25/31/25
f 90/120/90 23/29/23 89/119/89
f 42/48/42 43/49/43 90/121/90
f 91/122/91 88/123/88 92/124/92
f 59/70/59 91/122/91 61/72/61
f 91/122/91 42/48/42 61/72/61
f 91/122/91 59/70/59 88/123/88
f 53/125/53 89/119/89 56/67/56
f 89/119/89 25/31/25 56/67/56
f 52/63/52 61/72/61 90/121/90
f 42/48/42 90/121/90 61/72/61
f 88/123/88 59/77/59 57/68/57
f 56/67/56 88/126/88 57/68/57
f 25/31/25 88/126/88 56/67/56
f 90/127/90 89/119/89 53/125/53
f 52/63/52 90/127/90 53/128/53
f 68/84/68 63/129/63 93/130/93
f 93/130/93 63/129/63 55/66/55
f 55/66/55 58/69/58 64/79/64
f 55/66/55 64/79/64 93/130/93
f 65/80/65 68/84/68 94/131/94
f 94/131/94 95/132/95 65/80/65
f 68/84/68 93/130/93 96/133/96
f 96/133/96 94/131/94 68/84/68
f 93/130/93 64/79/64 97/134/97
f 97/134/97 96/133/96 93/130/93
f 64/79/64 65/80/65 95/132/95
f 95/132/95 97/134/97 64/79/64
f 94/131/94 96/133/96 73/89/73
f 73/89/73 70/86/70 94/131/94
f 95/132/95 94/131/94 70/86/70
f 70/86/70 69/85/69 95/132/95
f 96/133/96 97/134/97 72/88/72
f 72/88/72 73/89/73 96/133/96
f 97/134/97 95/132/95 69/85/69
f 69/85/69 72/88/72 97/134/97
f 70/86/70 73/89/73 71/87/71
f 51/62/51 46/61/46 12/12/12
f 10/10/10 18/135/18 48/99/48
f 98/136/98 47/53/47 46/137/46
f 99/138/99 86/139/86 100/140/100
f 101/141/101 86/139/86 99/138/99
f 22/142/22 86/139/86 101/141/101
f 22/142/22 101/141/101 102/143/102
f 102/143/102 17/144/17 22/142/22
f 99/138/99 92/124/92 87/145/87
f 92/124/92 99/138/99 40/46/40
f 100/140/100 40/46/40 99/138/99
f 99/138/99 24/30/24 101/141/101
f 23/29/23 102/143/102 24/30/24
f 23/29/23 90/120/90 102/143/102
f 24/30/24 102/143/102 101/141/101
f 43/49/43 40/46/40 102/143/102
f 90/120/90 43/49/43 102/143/102
f 40/46/40 100/140/100 102/143/102
f 86/139/86 18/146/18 100/140/100
f 100/140/100 18/146/18 102/143/102
f 18/146/18 17/144/17 102/143/102
f 87/147/87 24/30/24 99/138/99
f 91/122/91 92/124/92 42/48/42
f 92/124/92 40/46/40 42/48/42
f 88/148/88 87/149/87 92/124/92
f 103/150/103 104/151/104 105/152/105
f 106/153/106 103/150/103 105/152/105
f 107/154/107 106/153/106 105/152/105
f 104/151/104 107/154/107 105/152/105
f 108/155/108 109/156/109 104/151/104
f 104/151/104 103/150/103 108/155/108
f 110/157/110 108/155/108 103/150/103
f 103/150/103 106/153/106 110/157/110
f 109/156/109 111/158/111 107/154/107
f 107/154/107 104/151/104 109/156/109
f 111/158/111 110/157/110 106/153/106
f 106/153/106 107/154/107 111/158/111
f 65/80/65 66/81/66 108/155/108
f 108/155/108 110/157/110 65/80/65
f 66/81/66 112/159/112 109/156/109
f 109/156/109 108/155/108 66/81/66
f 112/159/112 67/82/67 111/158/111
f 111/158/111 109/156/109 112/159/112
f 67/82/67 65/80/65 110/157/110
f 110/157/110 111/158/111 67/82/67
f 66/81/66 60/71/60 112/159/112
f 66/81/66 58/69/58 60/71/60
f 112/159/112 60/71/60 62/73/62
f 112/159/112 62/73/62 54/160/54
f 112/159/112 54/160/54 67/82/67
f 113/161/113 3/3/3 15/15/15
f 113/161/113 15/15/15 114/162/114
f 16/163/16 22/24/22 17/17/17
f 8/164/8 113/161/113 115/165/115
f 115/165/115 113/161/113 114/162/114
f 115/165/115 114/162/114 116/166/116
f 13/13/13 14/14/14 19/19/19
f 16/163/16 8/164/8 21/23/21
f 21/23/21 8/164/8 115/165/115
f 117/167/117 118/168/118 119/169/119
f 120/170/120 117/167/117 121/171/121
f 121/171/121 117/167/117 119/169/119
f 121/171/121 119/169/119 122/172/122
f 19/19/19 120/170/120 121/171/121
f 19/19/19 121/171/121 13/13/13
f 13/13/13 121/171/121 122/172/122
f 13/13/13 122/172/122 11/11/11
f 2/173/2 1/174/1 118/168/118
f 119/169/119 118/168/118 123/175/123
f 118/168/118 1/174/1 123/175/123
f 123/175/123 1/174/1 4/176/4
f 122/172/122 119/169/119 124/177/124
f 124/177/124 119/169/119 123/175/123
f 124/177/124 123/175/123 125/178/125
f 125/178/125 123/175/123 4/176/4
f 125/178/125 4/176/4 6/179/6
f 11/11/11 122/172/122 51/62/51
f 51/62/51 122/172/122 124/177/124
f 51/62/51 124/177/124 49/57/49
f 49/57/49 124/177/124 125/178/125
f 49/57/49 125/178/125 6/179/6
f 49/57/49 6/179/6 9/55/9
f 8/164/8 3/21/3 113/161/113
f 21/26/21 115/165/115 116/166/116
f 21/26/21 116/166/116 50/58/50
f 15/180/15 2/173/2 118/168/118
f 117/167/117 15/180/15 118/168/118
f 114/181/114 15/180/15 117/167/117
f 120/170/120 114/181/114 117/167/117
f 116/182/116 114/181/114 120/170/120
f 19/19/19 116/182/116 120/170/120
f 50/183/50 116/182/116 19/19/19
f 19/19/19 20/20/20 50/183/50
f 98/184/98 84/185/84 47/186/47
f 47/186/47 84/185/84 83/187/83
f 16/188/16 18/18/18 10/189/10
f 46/61/46 48/190/48 98/191/98
f 85/192/85 84/193/84 98/194/98
f 85/108/85 98/194/98 48/110/48
f 14/106/14 47/195/47 83/196/83
