# Blender v2.78 (sub 0) OBJ File: ''
# www.blender.org
o ShapeIndexedFaceS.044
v -0.466904 1.171692 1.650445
v -0.904496 0.902354 1.651444
v -0.461586 0.660365 2.250982
v -0.491433 1.403150 -1.141136
v -1.080486 1.012561 0.778846
v -0.474586 1.382901 0.777436
v 0.179128 1.103450 -1.453182
v -0.494092 1.473671 -1.443360
v 0.114468 1.032922 -1.150365
v 0.179128 0.295558 -1.461709
v 0.114468 0.359679 -1.157471
v -0.494092 -0.074788 -1.459703
v -0.491433 -0.010661 -1.156057
v -1.167313 0.295433 -1.449886
v -1.097333 0.359567 -1.146831
v -1.167314 1.103325 -1.441359
v -1.097333 1.032810 -1.139726
v 0.131313 1.012673 0.768211
v 0.131313 0.339430 0.761105
v -0.474586 -0.030910 0.762515
v -1.080486 0.339318 0.771741
v -0.904496 0.431084 1.646470
v -0.029308 0.902435 1.643762
v -0.029308 0.431165 1.638788
v -0.466904 0.161828 1.639786
v -0.494092 0.699442 -1.451532
vt 0.4707 0.7812
vt 0.7812 0.6250
vt 0.4707 0.4688
vt 0.4707 0.9062
vt 0.9062 0.6875
vt 0.4707 0.9062
vt 0.0293 0.7188
vt 0.4707 0.9688
vt 0.0625 0.6875
vt 0.0293 0.2500
vt 0.0625 0.2812
vt 0.4707 0.0293
vt 0.4707 0.0625
vt 0.9688 0.2500
vt 0.9062 0.2812
vt 0.9688 0.7188
vt 0.9062 0.6875
vt 0.0625 0.6875
vt 0.0625 0.2812
vt 0.4707 0.0625
vt 0.9062 0.2812
vt 0.7812 0.3438
vt 0.1875 0.6250
vt 0.1875 0.3438
vt 0.4707 0.1875
vt 0.4707 0.4688
vn 0.0032 0.9046 0.4262
vn -0.7927 0.4386 0.4234
vn 0.0088 -0.0105 0.9999
vn -0.0087 0.9912 0.1322
vn -0.8658 0.4859 0.1192
vn 0.0007 0.9928 0.1199
vn 0.7385 0.4505 -0.5016
vn -0.0176 0.8560 -0.5167
vn 0.8705 0.4689 0.1494
vn 0.7338 -0.4526 -0.5066
vn 0.8668 -0.4807 0.1322
vn 0.0084 -0.8449 -0.5348
vn 0.0108 -0.9937 0.1111
vn -0.7473 -0.4399 -0.4980
vn -0.8678 -0.4721 0.1548
vn -0.7425 0.4630 -0.4840
vn -0.8643 0.4776 0.1575
vn 0.8679 0.4859 0.1037
vn 0.8677 -0.4881 0.0937
vn 0.0012 -0.9951 0.0989
vn -0.8660 -0.4881 0.1086
vn -0.7927 -0.4469 0.4144
vn 0.8000 0.4382 0.4098
vn 0.7999 -0.4472 0.4001
vn 0.0041 -0.9134 0.4070
vn -0.0088 0.0105 -0.9999
s 1
f 1/1/1 2/2/2 3/3/3
f 4/4/4 5/5/5 6/6/6
f 4/4/4 7/7/7 8/8/8
f 7/7/7 4/4/4 9/9/9
f 9/9/9 10/10/10 7/7/7
f 10/10/10 9/9/9 11/11/11
f 11/11/11 12/12/12 10/10/10
f 12/12/12 11/11/11 13/13/13
f 13/13/13 14/14/14 12/12/12
f 14/14/14 13/13/13 15/15/15
f 15/15/15 16/16/16 14/14/14
f 16/16/16 15/15/15 17/17/17
f 17/17/17 8/8/8 16/16/16
f 8/8/8 17/17/17 4/4/4
f 6/6/6 9/9/9 4/4/4
f 9/9/9 6/6/6 18/18/18
f 18/18/18 11/11/11 9/9/9
f 11/11/11 18/18/18 19/19/19
f 19/19/19 13/13/13 11/11/11
f 13/13/13 19/19/19 20/20/20
f 20/20/20 15/15/15 13/13/13
f 15/15/15 20/20/20 21/21/21
f 21/21/21 17/17/17 15/15/15
f 17/17/17 21/21/21 5/5/5
f 5/5/5 4/4/4 17/17/17
f 2/2/2 22/22/22 3/3/3
f 1/1/1 18/18/18 6/6/6
f 18/18/18 1/1/1 23/23/23
f 23/23/23 19/19/19 18/18/18
f 19/19/19 23/23/23 24/24/24
f 24/24/24 20/20/20 19/19/19
f 20/20/20 24/24/24 25/25/25
f 25/25/25 21/21/21 20/20/20
f 21/21/21 25/25/25 22/22/22
f 22/22/22 5/5/5 21/21/21
f 22/22/22 2/2/2 5/5/5
f 2/2/2 6/6/6 5/5/5
f 6/6/6 2/2/2 1/1/1
f 24/24/24 23/23/23 3/3/3
f 23/23/23 1/1/1 3/3/3
f 22/22/22 25/25/25 3/3/3
f 25/25/25 24/24/24 3/3/3
f 7/7/7 26/26/26 8/8/8
f 26/26/26 16/16/16 8/8/8
f 12/12/12 26/26/26 10/10/10
f 10/10/10 26/26/26 7/7/7
f 16/16/16 26/26/26 14/14/14
f 14/14/14 26/26/26 12/12/12
